<svg width="28" height="28" viewBox="0 0 28 28"  xmlns="http://www.w3.org/2000/svg">
<path d="M22.484 11.5173V5.49149C22.4837 5.27262 22.3965 5.06283 22.2417 4.90817C22.0868 4.75352 21.8769 4.66666 21.658 4.66666H15.0547C14.9463 4.66666 14.8391 4.68799 14.739 4.72944C14.6389 4.7709 14.548 4.83165 14.4714 4.90824C14.3948 4.98484 14.3341 5.07577 14.2926 5.17584C14.2512 5.27591 14.2298 5.38317 14.2298 5.49149V11.3692C15.0981 10.8407 16.0638 10.4924 17.0695 10.3448C18.9567 10.0578 20.8847 10.4752 22.484 11.5173ZM23.8035 20.349L26.2803 22.1807C26.5542 22.3624 26.7446 22.6456 26.8097 22.9677C26.8748 23.2899 26.8092 23.6247 26.6274 23.8986C26.4456 24.1724 26.1625 24.3628 25.8403 24.4279C25.5182 24.493 25.1833 24.4274 24.9095 24.2457L24.8103 24.171L22.3347 22.33H22.2857C21.6807 22.9095 20.9588 23.3529 20.1684 23.6306C19.378 23.9083 18.5374 24.0138 17.7029 23.9399C16.8684 23.8661 16.0594 23.6148 15.33 23.2027C14.6006 22.7906 13.9677 22.2273 13.4739 21.5506C12.98 20.8739 12.6365 20.0994 12.4665 19.2791C12.2964 18.4588 12.3038 17.6116 12.4879 16.7944C12.6721 15.9771 13.0289 15.2087 13.5344 14.5406C14.0398 13.8725 14.6823 13.3203 15.4187 12.9208H15.3522C15.9746 12.567 16.6575 12.332 17.3658 12.2278C18.6626 12.0311 19.9878 12.2752 21.1295 12.9208H21.0548C21.8516 13.3536 22.5366 13.9661 23.0554 14.7097C23.5743 15.4533 23.9127 16.3076 24.0438 17.2048V17.1628C24.2052 18.2112 24.0794 19.2836 23.6798 20.2662L23.8035 20.349ZM16.9318 20.8203C17.4837 21.0805 18.0997 21.1727 18.7028 21.084H18.6783C19.0837 21.0286 19.474 20.8929 19.8263 20.6849C20.1787 20.4769 20.486 20.2007 20.7304 19.8726C20.9748 19.5444 21.1514 19.1709 21.2498 18.7737C21.3481 18.3766 21.3663 17.9638 21.3033 17.5595C21.2222 17.0331 21.0063 16.5366 20.6766 16.1183C20.3469 15.7001 19.9145 15.3742 19.4216 15.1725C18.9287 14.9707 18.3919 14.9 17.8635 14.967C17.3352 15.0341 16.8331 15.2367 16.4063 15.5553C15.9794 15.8738 15.6422 16.2973 15.4274 16.7847C15.2126 17.2721 15.1276 17.8068 15.1807 18.3368C15.2337 18.8667 15.4229 19.374 15.73 19.8092C16.037 20.2444 16.4515 20.5927 16.933 20.8203H16.9318ZM4.326 15.3965H10.9293C10.5181 16.5368 10.3787 17.7573 10.5221 18.961C10.6655 20.1646 11.0878 21.3182 11.7553 22.33V22.8247C11.7555 22.9332 11.7342 23.0407 11.6928 23.1409C11.6513 23.2412 11.5905 23.3323 11.5137 23.4091C11.437 23.4858 11.3459 23.5466 11.2456 23.5881C11.1453 23.6295 11.0378 23.6508 10.9293 23.6507H4.326C4.10693 23.6507 3.89684 23.5636 3.74193 23.4087C3.58703 23.2538 3.5 23.0437 3.5 22.8247V16.2213C3.5 16.0026 3.5869 15.7928 3.74159 15.6381C3.89628 15.4834 4.10724 15.3965 4.326 15.3965ZM4.326 4.66666H10.9293C11.3843 4.66666 11.7553 5.03649 11.7553 5.49149V12.0948C11.7553 12.5498 11.3855 12.9208 10.9293 12.9208H4.326C4.21749 12.921 4.11001 12.8997 4.00972 12.8583C3.90944 12.8168 3.81832 12.756 3.74159 12.6792C3.66486 12.6025 3.60402 12.5114 3.56256 12.4111C3.52111 12.3108 3.49985 12.2033 3.5 12.0948V5.49149C3.5 5.03649 3.871 4.66666 4.326 4.66666Z" />
</svg>
