<svg width="28" height="28" viewBox="0 0 28 28" xmlns="http://www.w3.org/2000/svg">
<g clip-path="url(#clip0_1_13600)">
<path d="M13.5475 18.8335C13.5475 15.5423 16.6123 12.7517 20.5125 12.7517C21.4178 12.7517 22.3232 12.9663 23.1597 13.2533C23.1597 8.53066 18.493 4.66666 12.851 4.66666C7.07016 4.66666 2.3335 8.67299 2.3335 13.4668C2.3335 16.5433 4.28416 19.4052 7.21016 20.8367V24.0567C7.21016 24.4148 7.48783 24.6283 7.9055 24.4148L12.0845 22.2682H13.1298C13.6175 22.2682 14.1052 22.2682 14.5228 22.1247C13.8263 21.1225 13.5475 19.978 13.5475 18.8335ZM20.5125 14.5402C17.5877 14.5402 15.2193 16.401 15.2193 18.8335C15.2193 21.266 17.5877 23.2692 20.4425 23.2692H20.7913L21.4878 23.5562L22.602 24.2713C22.9508 24.2713 23.2985 24.2713 23.2985 23.842V22.554C24.6915 21.8388 25.6668 20.4073 25.6668 18.8335C25.6668 16.401 23.3685 14.5402 20.4425 14.5402H20.5125Z"/>
</g>
<defs>
<clipPath id="clip0_1_13600">
<rect width="28" height="28"/>
</clipPath>
</defs>
</svg>
