<svg width="28" height="28" viewBox="0 0 28 28" xmlns="http://www.w3.org/2000/svg">
<g clip-path="url(#clip0_1_13584)">
<path d="M9.57833 11.76C9.555 11.76 9.53167 11.76 9.50833 11.7367C8.72667 10.6867 8.52833 8.89 8.47 8.20167C8.47 8.07334 8.31833 7.99167 8.20167 8.06167C5.75167 9.42667 3.5 12.67 3.5 15.7967C3.5 21.1633 7.23333 25.6667 13.65 25.6667C19.6583 25.6667 23.8 21.0233 23.8 15.7967C23.8 8.94834 18.9 4.39834 14.5483 2.345C14.523 2.33105 14.4941 2.32465 14.4652 2.32656C14.4363 2.32848 14.4086 2.33862 14.3853 2.3558C14.362 2.37298 14.3441 2.39647 14.3337 2.4235C14.3233 2.45053 14.3209 2.47997 14.3267 2.50834C14.8867 6.195 14.1167 10.2083 9.57833 11.76Z"/>
</g>
<defs>
<clipPath id="clip0_1_13584">
<rect width="28" height="28"/>
</clipPath>
</defs>
</svg>
